<svg width="35" height="35" viewBox="0 0 35 35" fill="none" xmlns="http://www.w3.org/2000/svg">
<path d="M18 25.3848C18.5098 25.3848 18.9228 25.7979 18.9229 26.3076V29.0771C18.9227 29.5868 18.5097 30 18 30C17.4903 30 17.0773 29.5868 17.0771 29.0771V26.3076C17.0772 25.7979 17.4902 25.3848 18 25.3848ZM11.4727 23.2217C11.8331 22.8612 12.4178 22.8612 12.7783 23.2217C13.1388 23.5822 13.1388 24.1669 12.7783 24.5273L10.8203 26.4854C10.4598 26.8458 9.87513 26.8458 9.51465 26.4854C9.15419 26.1249 9.15417 25.5402 9.51465 25.1797L11.4727 23.2217ZM23.2217 23.2217C23.5822 22.8612 24.1669 22.8612 24.5273 23.2217L26.4854 25.1797C26.8458 25.5402 26.8458 26.1249 26.4854 26.4854C26.1249 26.8458 25.5402 26.8458 25.1797 26.4854L23.2217 24.5273C22.8612 24.1669 22.8612 23.5822 23.2217 23.2217ZM18 13.3848C20.549 13.3848 22.6152 15.451 22.6152 18C22.6152 20.549 20.549 22.6152 18 22.6152C15.451 22.6152 13.3848 20.549 13.3848 18C13.3848 15.451 15.451 13.3848 18 13.3848ZM9.69238 17.0771C10.2021 17.0772 10.6152 17.4902 10.6152 18C10.6152 18.5098 10.2021 18.9228 9.69238 18.9229H6.92285C6.41314 18.9227 6 18.5097 6 18C6 17.4903 6.41314 17.0773 6.92285 17.0771H9.69238ZM29.0771 17.0771C29.5868 17.0773 30 17.4903 30 18C30 18.5097 29.5868 18.9227 29.0771 18.9229H26.3076C25.7979 18.9228 25.3848 18.5098 25.3848 18C25.3848 17.4902 25.7979 17.0772 26.3076 17.0771H29.0771ZM9.51465 9.51465C9.87513 9.15418 10.4598 9.15417 10.8203 9.51465L12.7783 11.4727C13.1388 11.8331 13.1388 12.4178 12.7783 12.7783C12.4178 13.1388 11.8331 13.1388 11.4727 12.7783L9.51465 10.8203C9.15416 10.4598 9.15416 9.87513 9.51465 9.51465ZM25.1797 9.51465C25.5402 9.15417 26.1249 9.15418 26.4854 9.51465C26.8458 9.87513 26.8458 10.4598 26.4854 10.8203L24.5273 12.7783C24.1669 13.1388 23.5822 13.1388 23.2217 12.7783C22.8612 12.4178 22.8612 11.8331 23.2217 11.4727L25.1797 9.51465ZM18 6C18.5097 6 18.9227 6.41315 18.9229 6.92285V9.69238C18.9228 10.2021 18.5098 10.6152 18 10.6152C17.4902 10.6152 17.0772 10.2021 17.0771 9.69238V6.92285C17.0773 6.41315 17.4903 6 18 6Z" fill="currentColor"/>
</svg>
