<svg width="26" height="24" viewBox="0 0 26 24" fill="none" xmlns="http://www.w3.org/2000/svg">
<path d="M10.8333 17.8333H13.1667V13.1667H17.8333V10.8333H13.1667V6.16667H10.8333V10.8333H6.16666V13.1667H10.8333V17.8333ZM12 23.6667C10.3861 23.6667 8.86944 23.3653 7.45 22.7625C6.03055 22.1403 4.79583 21.3042 3.74583 20.2542C2.69583 19.2042 1.85972 17.9694 1.2375 16.55C0.634717 15.1306 0.333328 13.6139 0.333328 12C0.333328 10.3861 0.634717 8.86944 1.2375 7.45C1.85972 6.03055 2.69583 4.79583 3.74583 3.74583C4.79583 2.69583 6.03055 1.86944 7.45 1.26666C8.86944 0.644443 10.3861 0.333332 12 0.333332C13.6139 0.333332 15.1306 0.644443 16.55 1.26666C17.9694 1.86944 19.2042 2.69583 20.2542 3.74583C21.3042 4.79583 22.1306 6.03055 22.7333 7.45C23.3556 8.86944 23.6667 10.3861 23.6667 12C23.6667 13.6139 23.3556 15.1306 22.7333 16.55C22.1306 17.9694 21.3042 19.2042 20.2542 20.2542C19.2042 21.3042 17.9694 22.1403 16.55 22.7625C15.1306 23.3653 13.6139 23.6667 12 23.6667ZM12 21.3333C14.6056 21.3333 16.8125 20.4292 18.6208 18.6208C20.4292 16.8125 21.3333 14.6056 21.3333 12C21.3333 9.39444 20.4292 7.1875 18.6208 5.37917C16.8125 3.57083 14.6056 2.66666 12 2.66666C9.39444 2.66666 7.1875 3.57083 5.37916 5.37917C3.57083 7.1875 2.66666 9.39444 2.66666 12C2.66666 14.6056 3.57083 16.8125 5.37916 18.6208C7.1875 20.4292 9.39444 21.3333 12 21.3333Z" fill="#9495A5"/>
</svg>
