<svg width="32" height="32" viewBox="0 0 32 32" fill="none" xmlns="http://www.w3.org/2000/svg">
<path d="M16 10.0096H28.8" stroke="currentColor" stroke-width="1.92" stroke-linecap="round" stroke-linejoin="round"/>
<path d="M3.20001 10.0096H5.76001" stroke="currentColor" stroke-width="1.92" stroke-linecap="round" stroke-linejoin="round"/>
<path d="M26.24 21.5296H28.8" stroke="currentColor" stroke-width="1.92" stroke-linecap="round" stroke-linejoin="round"/>
<path d="M3.20001 21.5296H16" stroke="currentColor" stroke-width="1.92" stroke-linecap="round" stroke-linejoin="round"/>
<path d="M10.88 15.1296C13.7077 15.1296 16 12.8372 16 10.0096C16 7.18191 13.7077 4.88961 10.88 4.88961C8.05231 4.88961 5.76001 7.18191 5.76001 10.0096C5.76001 12.8372 8.05231 15.1296 10.88 15.1296Z" stroke="currentColor" stroke-width="1.92" stroke-linecap="round" stroke-linejoin="round"/>
<path d="M21.12 26.6496C23.9476 26.6496 26.24 24.3572 26.24 21.5296C26.24 18.702 23.9476 16.4096 21.12 16.4096C18.2924 16.4096 16 18.702 16 21.5296C16 24.3572 18.2924 26.6496 21.12 26.6496Z" stroke="currentColor" stroke-width="1.92" stroke-linecap="round" stroke-linejoin="round"/>
</svg>
